REM DIRINDEX 1\2,1\3,1\4,1\5
REM DIRNAME folder01,folder02,folder03,folder04,folder05
TITLE ""
FILE "1Q_t_1049-1058.mp3" MP3
  TRACK 01 AUDIO
    TITLE "3:cjc004_4051"
    INDEX 01 00:00:00
  TRACK 02 AUDIO
    TITLE "0:"
    INDEX 01 00:00:74
  TRACK 03 AUDIO
    TITLE "4:cjc004_4052"
    INDEX 01 00:01:22
  TRACK 04 AUDIO
    TITLE "0:"
    INDEX 01 00:02:36
  TRACK 05 AUDIO
    TITLE "5:cjc004_4053"
    INDEX 01 00:02:61
  TRACK 06 AUDIO
    TITLE "0:"
    INDEX 01 00:07:23
  TRACK 07 AUDIO
    TITLE "3:cjc004_4054"
    INDEX 01 00:08:07
  TRACK 08 AUDIO
    TITLE "0:"
    INDEX 01 00:09:42
  TRACK 09 AUDIO
    TITLE "4:cjc004_4055"
    INDEX 01 00:09:73
  TRACK 10 AUDIO
    TITLE "0:"
    INDEX 01 00:11:15
  TRACK 11 AUDIO
    TITLE "5:cjc004_4056"
    INDEX 01 00:11:39
  TRACK 12 AUDIO
    TITLE "0:"
    INDEX 01 00:17:35
  TRACK 13 AUDIO
    TITLE "3:cjc004_4057"
    INDEX 01 00:18:13
  TRACK 14 AUDIO
    TITLE "0:"
    INDEX 01 00:19:46
  TRACK 15 AUDIO
    TITLE "4:cjc004_4058"
    INDEX 01 00:19:73
  TRACK 16 AUDIO
    TITLE "0:"
    INDEX 01 00:21:13
  TRACK 17 AUDIO
    TITLE "5:cjc004_4059"
    INDEX 01 00:21:43
  TRACK 18 AUDIO
    TITLE "0:"
    INDEX 01 00:27:00
  TRACK 19 AUDIO
    TITLE "3:cjc004_4060"
    INDEX 01 00:27:51
  TRACK 20 AUDIO
    TITLE "0:"
    INDEX 01 00:29:03
  TRACK 21 AUDIO
    TITLE "4:cjc004_4061"
    INDEX 01 00:29:33
  TRACK 22 AUDIO
    TITLE "0:"
    INDEX 01 00:30:48
  TRACK 23 AUDIO
    TITLE "5:cjc004_4062"
    INDEX 01 00:31:02
  TRACK 24 AUDIO
    TITLE "0:"
    INDEX 01 00:35:57
  TRACK 25 AUDIO
    TITLE "3:cjc004_4063"
    INDEX 01 00:36:33
  TRACK 26 AUDIO
    TITLE "0:"
    INDEX 01 00:37:36
  TRACK 27 AUDIO
    TITLE "4:cjc004_4064"
    INDEX 01 00:37:61
  TRACK 28 AUDIO
    TITLE "0:"
    INDEX 01 00:38:63
  TRACK 29 AUDIO
    TITLE "5:cjc004_4065"
    INDEX 01 00:39:19
  TRACK 30 AUDIO
    TITLE "0:"
    INDEX 01 00:43:48
  TRACK 31 AUDIO
    TITLE "3:cjc004_4066"
    INDEX 01 00:44:26
  TRACK 32 AUDIO
    TITLE "0:"
    INDEX 01 00:45:35
  TRACK 33 AUDIO
    TITLE "4:cjc004_4067"
    INDEX 01 00:45:61
  TRACK 34 AUDIO
    TITLE "0:"
    INDEX 01 00:47:05
  TRACK 35 AUDIO
    TITLE "5:cjc004_4068"
    INDEX 01 00:47:32
  TRACK 36 AUDIO
    TITLE "0:"
    INDEX 01 00:51:20
  TRACK 37 AUDIO
    TITLE "3:cjc004_4069"
    INDEX 01 00:51:73
  TRACK 38 AUDIO
    TITLE "0:"
    INDEX 01 00:53:35
  TRACK 39 AUDIO
    TITLE "4:cjc004_4070"
    INDEX 01 00:53:66
  TRACK 40 AUDIO
    TITLE "0:"
    INDEX 01 00:55:12
  TRACK 41 AUDIO
    TITLE "5:cjc004_4071"
    INDEX 01 00:55:40
  TRACK 42 AUDIO
    TITLE "0:"
    INDEX 01 00:59:67
  TRACK 43 AUDIO
    TITLE "3:cjc004_4072"
    INDEX 01 01:00:47
  TRACK 44 AUDIO
    TITLE "0:"
    INDEX 01 01:01:60
  TRACK 45 AUDIO
    TITLE "4:cjc004_4073"
    INDEX 01 01:02:16
  TRACK 46 AUDIO
    TITLE "0:"
    INDEX 01 01:03:26
  TRACK 47 AUDIO
    TITLE "5:cjc004_4074"
    INDEX 01 01:03:51
  TRACK 48 AUDIO
    TITLE "0:"
    INDEX 01 01:08:21
  TRACK 49 AUDIO
    TITLE "3:cjc004_4075"
    INDEX 01 01:09:03
  TRACK 50 AUDIO
    TITLE "0:"
    INDEX 01 01:10:18
  TRACK 51 AUDIO
    TITLE "4:cjc004_4076"
    INDEX 01 01:10:49
  TRACK 52 AUDIO
    TITLE "0:"
    INDEX 01 01:12:34
  TRACK 53 AUDIO
    TITLE "5:cjc004_4077"
    INDEX 01 01:12:62
  TRACK 54 AUDIO
    TITLE "0:"
    INDEX 01 01:16:50
  TRACK 55 AUDIO
    TITLE "3:cjc004_4078"
    INDEX 01 01:17:39
  TRACK 56 AUDIO
    TITLE "0:"
    INDEX 01 01:18:58
  TRACK 57 AUDIO
    TITLE "4:cjc004_4079"
    INDEX 01 01:19:09
  TRACK 58 AUDIO
    TITLE "0:"
    INDEX 01 01:20:26
  TRACK 59 AUDIO
    TITLE "5:cjc004_4080"
    INDEX 01 01:20:57
  TRACK 60 AUDIO
    TITLE "0:"
    INDEX 01 01:26:34
